HIERARCHY
ROOT Hips
{
  OFFSET -69.4423 88.0299 51.6846
  CHANNELS 6 Xposition Yposition Zposition Zrotation Xrotation Yrotation
  JOINT Spine
  {
    OFFSET 12.0259 -0.162853 1.93176e-005
    CHANNELS 3 Zrotation Xrotation Yrotation
    JOINT Spine1
    {
      OFFSET 15.3169 -0.0121909 0
      CHANNELS 3 Zrotation Xrotation Yrotation
      JOINT Spine2
      {
        OFFSET 15.3176 -0.0121922 0
        CHANNELS 3 Zrotation Xrotation Yrotation
        JOINT Neck
        {
          OFFSET 19.9142 1.56236 0
          CHANNELS 3 Zrotation Xrotation Yrotation
          JOINT Head
          {
            OFFSET 6.92646 0 0
            CHANNELS 3 Zrotation Xrotation Yrotation
            End Site
            {
              OFFSET 20.7666 0 0
            }
          }
          JOINT LeftShoulder
          {
            OFFSET -4.94072 -1.14703 8.14416
            CHANNELS 3 Zrotation Xrotation Yrotation
            JOINT LeftArm
            {
              OFFSET 14.108 0 -2.74767e-005
              CHANNELS 3 Zrotation Xrotation Yrotation
              JOINT LeftForeArm
              {
                OFFSET 28.5802 -0.0783412 -0.0284884
                CHANNELS 3 Zrotation Xrotation Yrotation
                JOINT LeftHand
                {
                  OFFSET 27.092 0 0
                  CHANNELS 3 Zrotation Xrotation Yrotation
                  End Site
                  {
                    OFFSET 9.55928 -0.186424 0.145352
                  }
                }
              }
            }
          }
          JOINT RightShoulder
          {
            OFFSET -7.15748 -1.33027 -6.24935
            CHANNELS 3 Zrotation Xrotation Yrotation
            JOINT RightArm
            {
              OFFSET 14.108 0 1.82997e-005
              CHANNELS 3 Zrotation Xrotation Yrotation
              JOINT RightForeArm
              {
                OFFSET 28.5802 -0.0707221 2.30684e-005
                CHANNELS 3 Zrotation Xrotation Yrotation
                JOINT RightHand
                {
                  OFFSET 27.092 0 -1.30073e-005
                  CHANNELS 3 Zrotation Xrotation Yrotation
                  End Site
                  {
                    OFFSET 9.55929 -0.186417 -0.145354
                  }
                }
              }
            }
          }
        }
      }
    }
  }
  JOINT LeftUpLeg
  {
    OFFSET 0.00499725 -0.534999 8.837
    CHANNELS 3 Zrotation Xrotation Yrotation
    JOINT LeftLeg
    {
      OFFSET 39.9035 -0.00124594 0.000252775
      CHANNELS 3 Zrotation Xrotation Yrotation
      JOINT LeftFoot
      {
        OFFSET 39.6689 0 0
        CHANNELS 3 Zrotation Xrotation Yrotation
        JOINT LeftToe
        {
          OFFSET 10.1624 13.6296 0
          CHANNELS 3 Zrotation Xrotation Yrotation
          End Site
          {
            OFFSET 8.38147 0 0
          }
        }
      }
    }
  }
  JOINT RightUpLeg
  {
    OFFSET 0.00499725 -0.535 -8.837
    CHANNELS 3 Zrotation Xrotation Yrotation
    JOINT RightLeg
    {
      OFFSET 39.9036 -0.000268477 0.000106433
      CHANNELS 3 Zrotation Xrotation Yrotation
      JOINT RightFoot
      {
        OFFSET 39.6689 1.17892e-005 0
        CHANNELS 3 Zrotation Xrotation Yrotation
        JOINT RightToe
        {
          OFFSET 10.1624 13.6296 0
          CHANNELS 3 Zrotation Xrotation Yrotation
          End Site
          {
            OFFSET 8.38147 0 0
          }
        }
      }
    }
  }
}
MOTION
Frames:	10
Frame Time:	0.0333333
35.4506 90.3359 57.0133 -87.9023 -36.1101 -177.081 2.23187 2.8882 -0.778323 4.51142 5.74377 -1.67186 4.5114 5.74375 -1.67186 -10.6303 12.7241 -2.18701 73.8719 24.7275 -22.794 -169.88 14.462 -88.2034 -28.8668 1.04656 81.1044 -27.4766 3.15572 -17.267 80.683 -88.9423 83.2582 -170.091 11.9572 80.4169 -13.5654 -7.12163 -85.0163 -26.1407 -3.35671 15.7622 4.76512 85.6476 -4.85373 -4.47537 -1.26415 170.451 -27.5458 1.21993 -0.746941 -7.90538 14.9707 2.99187 90 1.27222e-014 1.59028e-015 -23.5969 -0.0171649 171.64 -54.1756 -0.256146 0.0705259 0.542599 0.486207 -0.464163 90 3.18055e-015 -3.18055e-015 
33.8446 90.5402 57.6241 -87.9735 -33.2062 -176.901 2.031 3.28076 -0.931154 4.12531 6.5264 -1.9831 4.1253 6.52639 -1.98311 -10.657 12.8218 -1.87766 74.0751 24.5622 -23.2472 -170.003 14.4227 -87.8512 -24.4118 2.91933 82.9407 -27.0427 3.09854 -16.9684 31.7458 -88.0245 34.3318 -170.106 12.2212 80.7096 -15.0081 -6.63013 -84.9966 -26.1417 -3.34661 15.7516 3.6588 84.6624 -3.71671 -4.62316 1.32535 170.174 -26.4215 1.19831 -0.784312 -8.08336 14.2285 2.87274 90 3.18055e-015 -3.18055e-015 -21.8311 -1.24455 171.024 -59.3725 -0.220521 -0.0450053 -0.683703 1.11174 -0.241649 90 6.36111e-015 -0 
32.1599 90.7314 58.1981 -88.4009 -30.7033 -176.719 1.79765 3.59284 -1.10458 3.67529 7.14888 -2.32846 3.6753 7.14892 -2.32848 -10.9797 12.8447 -1.64993 74.5553 24.5091 -23.4047 -169.789 14.2957 -87.606 -20.7543 4.64875 84.0743 -25.7336 2.87148 -16.2091 28.4669 -87.4673 31.0083 -169.818 12.3366 80.8663 -16.2758 -5.94008 -84.5958 -26.3445 -3.38692 15.8503 3.12989 84.1956 -3.18164 -4.79341 3.54486 169.602 -24.4712 1.18695 -0.836851 -10.3155 14.5698 3.34452 90 -6.36111e-015 3.18055e-015 -19.4466 -2.54741 170.282 -62.8725 -0.212742 -0.143503 -1.29111 0.394668 -0.3191 90 3.18055e-015 -1.59028e-015 
30.4747 90.9093 58.9571 -88.8941 -28.7281 -177.48 1.49697 3.83653 -1.04956 3.0746 7.64404 -2.2067 3.0746 7.64405 -2.20672 -10.81 12.9561 -1.26817 74.542 24.1977 -24.0674 -170.103 14.3472 -87.1263 -17.9283 6.62602 85.0154 -24.1182 2.58293 -15.2813 25.8439 -87.3511 28.5127 -170.067 12.6324 81.2617 -17.0333 -5.29118 -83.9943 -26.6581 -3.46417 16.0212 2.93104 83.8621 -2.98597 -5.45291 5.34321 170.096 -23.2522 1.1536 -0.912207 -10.272 13.816 3.20582 90 -6.36111e-015 1.59028e-015 -16.168 -4.42129 171.011 -63.8524 -0.260348 -0.238196 -2.0717 -2.29358 -0.802386 90 -3.18055e-015 -1.43125e-014 
28.7255 90.9901 59.7401 -89.196 -27.061 -177.863 1.37069 4.0538 -1.0494 2.82713 8.08094 -2.21097 2.82712 8.08093 -2.21099 -11.161 12.9595 -1.35414 74.107 24.2065 -23.6138 -169.768 14.1597 -87.2447 -14.6632 8.08841 85.6578 -23.0041 2.41081 -14.6272 17.5573 -85.6756 20.1084 -169.67 12.6551 81.0807 -16.9025 -3.92133 -83.2483 -27.1066 -3.58725 16.2731 3.47267 84.3796 -3.52602 -6.44847 6.25456 170.321 -22.3161 1.10293 -0.982344 -12.4556 11.635 2.98622 90 3.18055e-015 -3.18055e-015 -12.1537 -6.36532 171.957 -62.4688 -0.328898 -0.322303 -3.23803 -4.70608 -1.295 90 -6.36111e-015 -3.18055e-015 
26.8286 90.9078 60.599 -89.5729 -25.7987 -178.624 1.19244 4.11405 -1.06938 2.47141 8.20456 -2.23307 2.47141 8.20456 -2.2331 -11.1974 13.1104 -1.16656 73.216 24.7816 -22.9728 -169.776 14.2123 -86.9742 -12.3683 9.29138 85.2083 -20.8573 2.06956 -13.4158 13.4855 -83.9463 16.0069 -169.655 12.8457 81.2389 -16.8426 -2.50359 -83.0543 -27.3974 -3.66842 16.4363 3.75224 84.4504 -3.79517 -8.26816 7.05116 170.976 -22.6627 1.07765 -1.03104 -11.7002 11.9102 3.0199 90 9.54166e-015 4.77083e-015 -7.80003 -8.00949 173.893 -58.938 -0.428368 -0.391783 -4.50128 -7.31115 -1.93364 90 -3.18055e-015 4.77083e-015 
24.7606 90.7635 61.5358 -90.2431 -24.5571 -179.228 1.23084 4.43375 -1.17113 2.56413 8.84071 -2.44867 2.56411 8.84068 -2.44869 -11.9572 12.9082 -1.19033 72.3256 24.6948 -21.7338 -168.963 13.8776 -87.0388 -11.6792 9.1174 84.4794 -19.2673 1.82684 -12.5318 10.9157 -82.4727 13.4047 -168.829 12.5713 81.0399 -16.3679 -0.149232 -82.3342 -27.7402 -3.76736 16.6195 5.15691 85.4702 -5.24081 -10.4211 8.09363 171.507 -22.8819 1.03943 -1.07805 -11.8945 11.8259 3.06546 90 3.18055e-015 1.27222e-014 -3.70598 -8.38675 176.364 -53.698 -0.543587 -0.4202 -4.41673 -9.92534 -2.5509 90 0 1.27222e-014 
22.4477 90.5324 62.5764 -90.7517 -23.5605 -179.898 1.22483 4.54463 -1.08244 2.54789 9.06462 -2.27299 2.54789 9.06461 -2.27301 -12.0675 12.9388 -1.27807 72.042 24.5877 -21.6447 -168.826 13.8483 -87.1207 -10.5303 9.16917 84.6395 -18.3379 1.70126 -12.0265 9.97707 -81.2021 12.3874 -168.667 12.5668 80.8893 -16.7089 1.33153 -80.9947 -27.8452 -3.79516 16.6707 4.98348 85.3821 -5.04281 -12.7543 8.75243 172.199 -23.137 1.00597 -1.13199 -12.1677 12.0357 3.22177 90 3.18055e-015 -9.54166e-015 0.426557 -7.63667 179.214 -46.7964 -0.668433 -0.382079 -5.6466 -11.1546 -3.01053 90 -6.36111e-015 6.36111e-015 
19.7946 90.2262 63.6384 -91.6003 -22.781 179.37 1.17024 4.60639 -0.980904 2.43151 9.19146 -2.06621 2.4315 9.19145 -2.06623 -12.0903 12.9743 -1.4461 72.0738 24.4506 -21.7599 -168.791 13.8347 -87.3117 -10.1894 9.38131 85.1918 -18.38 1.71104 -12.0656 8.68735 -80.8933 11.1989 -168.59 12.549 80.7161 -17.6739 2.35903 -79.544 -28.1033 -3.86337 16.8107 5.13284 85.5723 -5.19259 -15.5384 8.78706 172.762 -23.1083 0.967252 -1.21031 -12.999 11.9869 3.39981 90 6.36111e-015 -1.59028e-015 3.43223 -6.13863 -178.214 -38.8544 -0.757925 -0.27697 -9.63742 -9.98361 -3.16293 90 -1.27222e-014 -3.18055e-015 
16.8534 89.7224 64.7108 -92.3961 -21.5997 178.948 1.23362 4.78403 -0.956155 2.5609 9.546 -2.02632 2.56089 9.54601 -2.02634 -12.1159 12.966 -1.82916 71.5124 24.3767 -21.3413 -168.695 13.7547 -87.716 -10.7002 8.97602 85.5848 -18.9585 1.79919 -12.4159 9.09728 -81.1423 11.5759 -168.45 12.3917 80.3519 -18.5241 3.59687 -78.0627 -28.5364 -3.97708 17.0348 5.1995 85.7048 -5.26336 -18.2052 9.35337 173.094 -22.7517 0.930431 -1.28146 -13.1942 12.6684 3.68179 90 7.95139e-015 -0 5.56503 -3.67835 -176.471 -31.3606 -0.810717 -0.12896 -9.7061 -8.15681 -2.59063 90 -6.36111e-015 3.18055e-015 
